<?xml version="1.0" encoding="utf-8"?>
<!-- Generator: Adobe Illustrator 25.1.0, SVG Export Plug-In . SVG Version: 6.00 Build 0)  -->
<svg version="1.1" id="Layer_1" xmlns="http://www.w3.org/2000/svg" xmlns:xlink="http://www.w3.org/1999/xlink" x="0px" y="0px"
	 viewBox="0 0 48 48" style="enable-background:new 0 0 48 48;" xml:space="preserve">
<style type="text/css">
	.st0{fill:#111111;}
	.st1{fill:#FDFDFD;}
</style>
<circle class="st0" cx="24" cy="24" r="24"/>
<path class="st1" d="M35.2,9h-2.8c-2.1,0-3.8,1.7-3.8,3.8v0.9h-9.4v-0.9c0-2.1-1.7-3.8-3.8-3.8h-2.8C10.7,9,9,10.7,9,12.8v4.7
	c0,2.1,1.7,3.8,3.8,3.8h2.8c2.1,0,3.8-1.7,3.8-3.8h2.8v13.1h-2.8c0-2.1-1.7-3.8-3.8-3.8h-2.8c-2.1,0-3.8,1.7-3.8,3.8v4.7
	c0,2.1,1.7,3.8,3.8,3.8h2.8c2.1,0,3.8-1.7,3.8-3.8v-0.9h9.4v0.9c0,2.1,1.7,3.8,3.8,3.8h2.8c2.1,0,3.8-1.7,3.8-3.8v-4.7
	c0-2.1-1.7-3.8-3.8-3.8h-2.8c-2.1,0-3.8,1.7-3.8,3.8h-2.8V17.4h2.8c0,2.1,1.7,3.8,3.8,3.8h2.8c2.1,0,3.8-1.7,3.8-3.8v-4.7
	C39,10.7,37.3,9,35.2,9z M12.8,17.4v-4.7h2.8v4.7H12.8z M12.8,35.2v-4.7h2.8v4.7H12.8z M32.4,30.6h2.8v4.7h-2.8V30.6z M32.4,17.4
	v-4.7h2.8v4.7H32.4z"/>
</svg>
