<?xml version="1.0" encoding="utf-8"?>
<!-- Generator: Adobe Illustrator 25.1.0, SVG Export Plug-In . SVG Version: 6.00 Build 0)  -->
<svg version="1.1" id="Layer_1" xmlns="http://www.w3.org/2000/svg" xmlns:xlink="http://www.w3.org/1999/xlink" x="0px" y="0px"
	 viewBox="0 0 48 48" style="enable-background:new 0 0 48 48;" xml:space="preserve">
<style type="text/css">
	.st0{fill:#111111;}
	.st1{fill-rule:evenodd;clip-rule:evenodd;fill:#FDFDFD;}
</style>
<circle class="st0" cx="24" cy="24" r="24"/>
<g>
	<path class="st1" d="M12.6,20.4c0.7-1.5,1.3-3.1,2.2-4.8c0.4-0.8,1-1.6,1.9-1.6h14.4c1,0.1,1.5,0.8,2,1.6c0.8,1.7,1.5,3.3,2.2,4.8
		H12.6z M16.7,11.7c-1.6,0-2.5,0.6-3.8,2.4l-2.1,4.8H7.5c-0.5,0-1.4,2.7,2,2.7l-1.1,2.8c0,3.5,0.1,7,0.1,10.6c0,0.8,0.6,1.3,1.3,1.3
		h4.4c0.8,0,1.3-0.6,1.3-1.3v-3h16.9v3c0,0.8,0.6,1.3,1.3,1.3h4.4c0.8,0,1.3-0.6,1.3-1.3c0-3.5,0.1-7,0.1-10.6l-1.2-2.8
		c3.5-0.1,2.5-2.7,2-2.7h-3.3l-2.1-4.8c-1.3-1.8-2.3-2.4-3.8-2.4C31.3,11.7,16.7,11.7,16.7,11.7z M34.6,24.6c-1.2,0-2.1,1-2.1,2.1
		c0,1.1,1,2.1,2.1,2.1c1.1,0,2.1-1,2.1-2.1C36.7,25.6,35.8,24.6,34.6,24.6z M13.2,24.6c1.2,0,2.1,1,2.1,2.1c0,1.1-1,2.1-2.1,2.1
		s-2.1-1-2.1-2.1C11.1,25.6,12,24.6,13.2,24.6z"/>
</g>
</svg>
