<?xml version="1.0" encoding="utf-8"?>
<!-- Generator: Adobe Illustrator 25.4.1, SVG Export Plug-In . SVG Version: 6.00 Build 0)  -->
<svg version="1.1" id="Layer_1" xmlns="http://www.w3.org/2000/svg" xmlns:xlink="http://www.w3.org/1999/xlink" x="0px" y="0px"
	 viewBox="0 0 48 48" style="enable-background:new 0 0 48 48;" xml:space="preserve">
<style type="text/css">
	.st0{fill:#111111;}
	.st1{fill-rule:evenodd;clip-rule:evenodd;fill:#FDFDFD;}
	.st2{fill:#FDFDFD;}
</style>
<circle class="st0" cx="24" cy="24" r="24"/>
<g>
	<polygon class="st1" points="14.7,31.5 25.8,37.6 15.8,30 	"/>
	<polygon class="st1" points="9.4,36.6 26.6,38.2 9.7,34.8 	"/>
	<path class="st1" d="M17.6,16.9c0.2-0.3,0-0.2,0.7-0.1c0.1,0.9,0.2,0.4,0.4,1.1c-0.1,0,0,0-0.1,0.1c-0.5,0.4-0.5,0.6-1.2,0.6
		c0-0.1-0.1-0.1-0.1-0.1c-0.2-0.2-0.4-0.3-0.5-0.4c0,0,0-0.1-0.1-0.1c0-0.2,0.1-0.6,0.1-1v-0.1c0.2,0,0.4,0,0.5-0.1L17.6,16.9
		L17.6,16.9z"/>
	<path class="st1" d="M12.9,17.6c0.4-0.6,0.2-0.4,1-0.4c0,0,0.1,0,0.1,0.1c0.4,0.2,0.2,0,0.4,0.5c-0.1,0.2-0.1,0.4-0.2,0.7
		c0,0.2,0,0.4-0.1,0.5v0.1c-0.1,0-0.1,0-0.1,0.1c-0.2,0-0.4,0-0.7,0.1v-0.1c-0.7-0.7-0.4-0.5-0.9-0.8h-0.1c0.1-0.2,0.1-0.4,0.1-0.5
		h0.1c0.1-0.1,0.3-0.1,0.4-0.2V17.6z"/>
	<path class="st1" d="M13.4,21.7c0.3-0.7,0.1-0.6,0.8-0.6v0.1c1.1,0.3,0.6,0.1,0.9,0.9c0.4,0.5,0.4,0.2,0.2,0.8
		c-0.6,0.4-0.6,1.1-1.4,0.8c-0.4-0.1-1.1-0.5-1.2-0.9c0.1-0.9-0.2-0.5,0.6-0.9L13.4,21.7z"/>
	<path class="st1" d="M13.1,27.3c-0.1-0.1-0.1-0.2-0.2-0.2V27c0.2-0.5,0-0.2,0.9-0.4c0.4-0.3,0.2-0.2,0.8-0.2
		c1.1,0.4,1.2,0.2,1.1,1.4c0.2,0.2,0.5,0.5,0.1,0.9c-0.3,0.2-1.2,0.9-1.7,0.8c-0.4-0.2-1.5-0.5-1.4-1.1c0.5-0.5,0.4-0.2,0.4-0.9
		L13.1,27.3z"/>
	<path class="st1" d="M7.2,26.9c0.4-0.6,0.2-0.4,0.8-0.6v0.1c0.1,0,0.9,0,1,0.3c0.4,0.5,0.8,1,0.7,1.7c-0.4,0.3-0.2,0.2-0.6,0.4
		c-1.1,1.1-0.7,0.8-1.6,0.1c-0.5,0-0.2,0.1-0.6-0.3c-0.3-0.9-0.3-0.4,0.1-1.3L7.2,26.9z"/>
	<path class="st1" d="M8.2,32.6c0.7,0.4,0.4,0.1,0.7,0.9c-0.1,0.1-0.1,0.2-0.1,0.3c-0.1,0-0.1,0.1-0.1,0.1c0,0.6,0,0.9-0.4,1.2
		c-0.4,0.2-0.7-0.2-0.9-0.2c-0.7-0.1-1.5,0.2-1.2-0.9c0.1-0.4,0.3-1,0.5-1.4c0.1-0.2,0.6-0.4,0.9-0.2C7.8,32.5,7.7,32.4,8.2,32.6
		L8.2,32.6z"/>
	<path class="st1" d="M4.5,18.7c0.4-0.5,0.4-0.7,0.8-0.1v0.1c0.2,0,0.4-0.2,0.6-0.2c0,0.5,0.4,1,0.2,1.4c-0.2,0.6-0.5,0.4-1,0.2
		c-0.5,0-0.7,0.4-1.1,0.2c-0.6-0.4,0-1.1,0.4-1.3c0-0.1,0-0.1,0.1-0.2L4.5,18.7z"/>
	<polygon class="st1" points="17.2,22.6 26.9,38 18.8,21.8 	"/>
</g>
<path class="st2" d="M48,24c0-1.7-0.2-3.3-0.5-4.9H34.1c1-2,1.8-4.2,3-6.6c0.6-1.1,1.4-2.1,2.6-2.2h4c-0.8-1.1-1.7-2.2-2.6-3.2h-1.3
	c-2.1,0-3.4,0.8-5.2,3.3L31.7,17h-4.5c-0.7,0-1.9,3.7,2.8,3.8l-1.5,3.9c0,4.8,0.1,9.7,0.1,14.5c0,1.1,0.8,1.8,1.8,1.8h6.1
	c1.1,0,1.8-0.8,1.8-1.8V35h7.1C47,31.7,48,28,48,24z M34.9,30.7c-1.5,0-2.9-1.4-2.9-2.9s1.3-2.9,2.9-2.9c1.6,0,2.9,1.4,2.9,2.9
	C37.8,29.3,36.5,30.7,34.9,30.7z"/>
</svg>
