<?xml version="1.0" encoding="utf-8"?>
<!-- Generator: Adobe Illustrator 25.1.0, SVG Export Plug-In . SVG Version: 6.00 Build 0)  -->
<svg version="1.1"
	 id="Layer_1" xmlns:cc="http://creativecommons.org/ns#" xmlns:dc="http://purl.org/dc/elements/1.1/" xmlns:inkscape="http://www.inkscape.org/namespaces/inkscape" xmlns:rdf="http://www.w3.org/1999/02/22-rdf-syntax-ns#" xmlns:sodipodi="http://sodipodi.sourceforge.net/DTD/sodipodi-0.dtd" xmlns:svg="http://www.w3.org/2000/svg"
	 xmlns="http://www.w3.org/2000/svg" xmlns:xlink="http://www.w3.org/1999/xlink" x="0px" y="0px" viewBox="0 0 48 48"
	 style="enable-background:new 0 0 48 48;" xml:space="preserve">
<style type="text/css">
	.st0{fill:#111111;}
	.st1{fill:#FDFDFD;}
</style>
<circle class="st0" cx="24" cy="24" r="24"/>
<g transform="translate(0,-952.36216)">
	<path class="st1" d="M27.9,958.3c-2,0-3.7,1.7-3.7,3.7c0,2,1.7,3.7,3.7,3.7s3.7-1.7,3.7-3.7C31.6,959.9,30,958.3,27.9,958.3z
		 M18.8,965.2c-0.9,0-1.7,0.4-2.1,1.4l-3.3,7.7c-0.5,1.1,0.2,2.2,1.4,2.5l2,0.6c1.1,0.3,2.2-0.2,2.5-1.4l2.5-8.1
		c0.3-1.1-0.2-2.2-1.4-2.5c-0.5-0.2-0.8-0.2-1.2-0.3C19.1,965.2,18.9,965.2,18.8,965.2z M25.8,966.3c-1.2,0-2.6,0.8-2.9,2l-2.4,7.8
		l-0.3,0.9c-0.2,0.4-0.1,1,0.3,1.7l2.1,4.1l0.6,1.1l4.8,9.3c0.5,1.1,1.7,1.4,2.8,0.9c1-0.5,1.4-1.8,0.8-2.8l-6.5-12.6l1-2.9l0.7-2.1
		c1.1,2.7,4.7,3.8,7,4.7l-1.2,15.1c0,0.4,0.2,0.7,0.6,0.7c0.4,0,0.7-0.2,0.7-0.6l1.2-15.1c0.4-0.2,0.8-0.5,0.9-0.9
		c0.2-0.7-0.1-1.4-0.7-1.7l0.2-2.5c0-0.4-0.2-0.7-0.6-0.7c-0.5,0-0.6,0.3-0.7,0.6l-0.2,2.1c-2-0.8-3.5-1.4-4.1-2.2
		c-0.4-0.5-0.8-1.1-1.1-2.1c-0.3-1-0.3-2.1-0.5-3.2C28.2,966.9,27,966.2,25.8,966.3L25.8,966.3z M19.4,979.2l-2.3,7.4l-4.5,4.3
		c-0.8,0.8-0.9,2.1-0.1,2.9c0.8,0.8,2.1,0.8,2.9,0.1l4.9-4.7c0.2-0.2,0.5-0.5,0.5-0.9l1.2-4L19.4,979.2z"/>
</g>
</svg>
