<?xml version="1.0" encoding="utf-8"?>
<!-- Generator: Adobe Illustrator 25.1.0, SVG Export Plug-In . SVG Version: 6.00 Build 0)  -->
<svg version="1.1" id="Layer_1" xmlns="http://www.w3.org/2000/svg" xmlns:xlink="http://www.w3.org/1999/xlink" x="0px" y="0px"
	 viewBox="0 0 48 48" style="enable-background:new 0 0 48 48;" xml:space="preserve">
<style type="text/css">
	.st0{fill:#111111;}
	.st1{fill-rule:evenodd;clip-rule:evenodd;fill:#FDFDFD;}
</style>
<circle class="st0" cx="24" cy="24" r="24"/>
<g>
	<path class="st1" d="M17.9,27.3L28,23l-11.2-7L6,20.2L17.9,27.3z M6,21.4v2.1l11.9,7.1L28,26.3v-2.1l-10.1,4.3L6,21.4z M6,24.8v2.1
		L17.9,34L28,29.8v-2.2L17.9,32L6,24.8z M6,28v2.1l11.9,7.1L28,33v-2.1l-10.1,4.3L6,28z M32.1,21.2v10l-3.4,1.5v-10l-11.2-6.9
		l3.5-1.3L32.1,21.2z M32.8,31l9.2-4v-2.1l-9.2,4V31z M32.8,27.7l9.2-4v-2.1l-9.2,3.9V27.7z M32.8,24.3l9.2-4v-2.1l-9.2,3.9V24.3z
		 M32.8,21l9.2-4l-11.2-6.2l-9.2,3.5L32.8,21z"/>
</g>
</svg>
