<?xml version="1.0" encoding="utf-8"?>
<!-- Generator: Adobe Illustrator 25.4.1, SVG Export Plug-In . SVG Version: 6.00 Build 0)  -->
<svg version="1.1"
	 id="svg9648" xmlns:cc="http://creativecommons.org/ns#" xmlns:dc="http://purl.org/dc/elements/1.1/" xmlns:inkscape="http://www.inkscape.org/namespaces/inkscape" xmlns:rdf="http://www.w3.org/1999/02/22-rdf-syntax-ns#" xmlns:sodipodi="http://sodipodi.sourceforge.net/DTD/sodipodi-0.dtd" xmlns:svg="http://www.w3.org/2000/svg"
	 xmlns="http://www.w3.org/2000/svg" xmlns:xlink="http://www.w3.org/1999/xlink" x="0px" y="0px" viewBox="0 0 48 48"
	 style="enable-background:new 0 0 48 48;" xml:space="preserve">
<style type="text/css">
	.st0{fill:#111111;}
</style>
<g id="layer1" transform="translate(1032.1104,-102.1654)" inkscape:groupmode="layer" inkscape:label="Livello 1">
	<g id="layer1-1" transform="translate(374.23016,134.61559)" inkscape:groupmode="layer" inkscape:label="Livello 1">
	</g>
	<g id="layer1-6" transform="translate(-722.67566,-29.245306)" inkscape:groupmode="layer" inkscape:label="Livello 1">
		<g id="layer1-1-5" transform="translate(374.23,134.616)" inkscape:groupmode="layer" inkscape:label="Livello 1">
		</g>
	</g>
	<path id="path9041" class="st0" d="M-995.2,129h-4.7v-5.6h4.7c5.6,0,10.1-4.5,10.1-10.1s-4.5-10.1-10.1-10.1s-10.1,4.5-10.1,10.1
		v4.5h-5.6v-4.5c0-5.6-4.5-10.1-10.1-10.1c-5.6,0-10.1,4.5-10.1,10.1s4.5,10.1,10.1,10.1h4.7v5.6h-4.7c-5.6,0-10.1,4.5-10.1,10.1
		s4.5,10.1,10.1,10.1s10.1-4.5,10.1-10.1v-4.5h5.6v4.5c0,5.6,4.5,10.1,10.1,10.1s10.1-4.5,10.1-10.1S-989.6,129-995.2,129
		L-995.2,129z M-999.9,113.3c0-2.6,2.1-4.6,4.6-4.6s4.6,2.1,4.6,4.6s-2.1,4.5-4.6,4.5h-4.6V113.3z M-1016.6,139
		c0,2.6-2.1,4.6-4.6,4.6s-4.6-2.1-4.6-4.6c0-2.6,2.1-4.5,4.6-4.5h4.6V139z M-1016.3,117.8h-4.6c-2.6,0-4.6-2-4.6-4.5
		s2.1-4.6,4.6-4.6c2.6,0,4.6,2.1,4.6,4.6L-1016.3,117.8L-1016.3,117.8z M-1010.9,123.4h5.6v5.6h-5.6V123.4z M-995.3,143.7
		c-2.6,0-4.6-2.1-4.6-4.6v-4.5h4.6c2.6,0,4.6,2,4.6,4.5C-990.6,141.6-992.7,143.7-995.3,143.7"/>
</g>
</svg>
