
<svg style="position: absolute; width: 0; height: 0; overflow: hidden;" version="1.1" xmlns="http://www.w3.org/2000/svg" xmlns:xlink="http://www.w3.org/1999/xlink">
<defs>
<symbol id="icon-unsplash" viewBox="0 0 200 200">
<path d="M158.8,0H40.9c-22.6,0-41,18.3-41,41v117.9c0,22.6,18.3,41.1,41,41.1h118c22.6,0,41.1-18.4,41.1-41.1V41C199.9,18.4,181.6,0,158.8,0z M77.9,41.4h44v33h-44V41.4z M158.6,158.6H41.3V92.6h36.7v33.3h44V92.6h36.4L158.6,158.6L158.6,158.6z"/>
</symbol>
<symbol id="icon-twitter" viewBox="0 0 200 200">
<path d="M159,0H41C18.4,0,0,18.3,0,41v117.9c0,22.7,18.3,41.1,41,41.1h117.9c22.7,0,41.1-18.5,41.1-41.1V41C200,18.4,181.7,0,159,0z M157.4,73c0.1,1.1,0.1,2.4,0.1,3.6c0,37.7-28.8,81.3-81.3,81.3c-16.2,0-31.2-4.8-43.7-12.9c2.3,0.3,4.5,0.4,6.8,0.4c13.4,0,25.7-4.7,35.5-12.3c-12.5-0.2-23.1-8.5-26.7-19.9c1.7,0.4,3.5,0.6,5.3,0.6c2.6,0,5.1-0.3,7.5-1c-13.1-2.6-23-14.1-23-28c0-0.1,0-0.2,0-0.3c3.9,2,8.3,3.4,13,3.5c-7.7-5.1-12.7-13.9-12.7-23.8c0-5.2,1.4-10.1,3.9-14.3C56.2,67.2,77.2,78.6,101,79.8c-0.5-2.1-0.7-4.2-0.7-6.5c0-15.7,12.7-28.5,28.5-28.5c8.2,0,15.6,3.4,20.8,9c6.6-1.2,12.6-3.6,18.2-6.9c-2.1,6.7-6.7,12.3-12.6,15.8c5.7-0.7,11.3-2.2,16.4-4.5C167.9,63.9,163,69,157.4,73z"/>
</symbol>
<symbol id="icon-linkedin" viewBox="0 0 200 200">
<path d="M200,158.9v-118c0-22.6-18.3-41-41.1-41H41.1C18.4-0.1,0,18.2,0,41v118c0,22.6,18.3,41.1,41.1,41.1h118C181.7,200,200,181.8,200,158.9L200,158.9z M60,172.3H30V75.8h30V172.3z M44.9,62.4c-9.7,0-17.4-7.7-17.4-17.4c0-9.6,7.7-17.4,17.4-17.4c9.6,0,17.4,7.8,17.4,17.4C62.3,54.5,54.5,62.4,44.9,62.4z M172.6,172.4h-30v-47c0-11.2-0.2-25.6-15.6-25.6c-15.6,0-18,12.2-18,24.8v47.8H78.8V75.8h28.8v13.2h0.5c4-7.6,13.8-15.6,28.4-15.6c30.4,0,36.1,20,36.1,46.1V172.4L172.6,172.4z"/>
</symbol>
<symbol id="icon-instagram" viewBox="0 0 200 200">
<path d="M160.6,76.5c0-20.7-16.8-37.5-37.5-37.5H76.4c-20.7,0-37.5,16.8-37.5,37.5v46.9c0,20.7,16.8,37.5,37.5,37.5h46.9c20.7,0,37.5-16.8,37.5-37.5c0,0-0.1,0-0.2-0.1V76.5z M101.9,139.9c-22.1,0-39.8-17.7-39.8-39.7S80,60.5,101.9,60.5s39.7,17.7,39.7,39.7C141.6,122.1,123.8,139.9,101.9,139.9z M138.9,69.9c-5.5,0-10.1-4.6-10.1-10.1s4.6-10.1,10.1-10.1s10.1,4.5,10.1,10.1S144.4,69.9,138.9,69.9z"/>
<circle cx="101.9" cy="100.2" r="23.9"/>
<path d="M158.9,0.2h-118c-22.6,0-41,18.3-41,41v117.7c0,22.7,18.3,41.1,41,41.1h117.9c22.7,0,41.1-18.5,41.1-41.1l0.1-117.7C200,18.6,181.6,0.2,158.9,0.2z M175.2,128.9c0,25.7-20.8,46.5-46.5,46.5H70.8c-25.7,0-46.5-20.8-46.5-46.5V71c0-25.7,20.8-46.5,46.5-46.5h58c25.6,0,46.4,20.8,46.4,46.5L175.2,128.9L175.2,128.9z"/>
</symbol>
<symbol id="icon-facebook" viewBox="0 0 200 200">
<path d="M159,0H41C18.3,0-0.1,18.4,0,41v117.9c0,22.7,18.3,41.1,41,41.1h67.4v-79.6H81.1V89.6h27.2V67.9c0.1-20.8,7.6-28,7.6-28c11-14.5,28.4-14,28.4-14h4.8h23V55h-18.4c-12.6-0.2-13.7,10.5-13.8,12.8v21.8h30.9l-3.8,30.8h-27.1v79.6h19c22.7,0,41.1-18.4,41.1-41.1V41C200,18.4,181.7,0,159,0z"/>
</symbol>
<symbol id="icon-cssbattle" viewBox="0 0 200 200">
<path d="M158.8,0H40.9c-22.6,0-41,18.3-41,41v117.9c0,22.6,18.3,41.1,41,41.1h118c22.6,0,41.1-18.4,41.1-41.1V41C199.9,18.4,181.6,0,158.8,0z M139.2,34.7h18.8l0.6,18.8l-32.1,32.1l-18.8-18.7L139.2,34.7z M92.5,148.8l-9.7,9.7l-16.4-17l-21.8,21.2c-2.4,2.4-6.7,2.4-9.7,0l-4.9-4.9c-2.4-2.4-2.4-6.7,0-9.7l21.2-21.8l-16.4-17l9.7-9.7l15.2,15.8l14.6-15.2l18.8,19.4l-14.6,14.5L92.5,148.8z M170.8,157.8l-4.9,4.9c-3,2.4-7.3,2.4-9.7,0l-21.8-21.2l-16.4,17l-9.7-9.7l13.9-13.9L42.8,54.1V34.7h18.8l80,80.6l14.6-15.2l9.7,9.7l-16.4,17l21.2,21.2C173.1,151.1,173.1,155.4,170.8,157.8z"/>
</symbol>
<symbol id="icon-500px" viewBox="0 0 200 200">
<path d="M68.2,84.5c-9.7,0.1-17.4,7.9-17.4,17.6s7.9,17.4,17.6,17.4c9.6-0.1,17.4-8,17.4-17.6C85.8,92.2,77.9,84.4,68.2,84.5z"/>
<path d="M98.7,102.1c0.1,9.7,7.9,17.4,17.6,17.4c0.1,0,0.2,0,0.4,0c9.6-0.2,17.2-8,17-17.6c-0.1-9.7-7.9-17.4-17.6-17.4C106.5,84.5,98.7,92.4,98.7,102.1z"/>
<path d="M200,97l0-55.8c0-22.6-18.4-41-41.1-41h-52.7C104.2,0.1,102.1,0,100,0s-4.2,0.1-6.2,0.2H40.9c-22.6,0-41,18.3-41,41v117.7c0,22.7,18.3,41.1,41,41.1h117.9c22.7,0,41.1-18.5,41.1-41.1l0-55.8c0-1,0.1-2.1,0.1-3.1C200,99,200,98,200,97z M191,99.6c0.7,0.4,0.4,1.3-0.2,2.2c-0.4,0.5-0.9,0.8-1.6,0.9c-0.3,0-0.7-0.2-0.9-0.4l-8-8l-8,8c-0.3,0.2-0.7,0.4-1.1,0.4c-0.6-0.2-1.1-0.5-1.6-0.9c-0.5-0.3-0.9-0.9-0.9-1.6c0.1-0.3,0.2-0.6,0.4-0.9l8.1-8.2l-8-8c-0.7-0.7-0.7-1.6,0.4-2.5s1.8-1.1,2.5-0.4l8,8.2l8-8c0.2-0.3,0.5-0.4,0.9-0.4c0.6,0.1,1.2,0.4,1.6,0.9c1.3,1.6,0.7,2.2,0.4,2.5l-8,8L191,99.6z M159.6,86c-1.5-1.3-3.5-2-5.6-1.8c-3.8,0.5-6.5,3.8-6.5,7.6v19.8c0,1.1-0.9,1.3-2.2,1.3c-1.3,0-2.2-0.2-2.2-1.3V91.8c0-6.2,4.6-11.3,10.7-12c0.7,0,1.3,0,2-0.2c0.1,0,0.1,0,0.2,0c6.4,0.5,11.1,6.1,10.5,12.5c-0.4,4-2.9,7.5-6.5,9.4c-2,1.1-4.2,1.6-6.5,1.3c-1.1-0.2-1.1-0.9-1.1-2.2c0.2-2,0.9-2,1.8-2c2.4,0.2,4.8-0.9,6.2-2.9c0.9-1.3,1.4-2.7,1.6-4.2C162,89.3,161.1,87.4,159.6,86zM138.6,101.9c0,12.3-10,22.3-22.3,22.3c-12.3,0-22.3-10-22.3-22.3c0-12.3,10-22.3,22.3-22.3C128.7,79.6,138.6,89.5,138.6,101.9zM90.7,101.9c0,12.3-10,22.3-22.3,22.3s-22.3-10-22.3-22.3c0-12.3,10-22.3,22.3-22.3C80.7,79.7,90.6,89.6,90.7,101.9z M15,111.9c1.8-0.7,2.2-0.2,2.5,0.4c1.6,4.4,5.8,7.3,10.5,7.4h1.3c6.1-0.8,10.5-6.3,9.8-12.5c-0.8-5.2-4.9-9.2-10-9.8c-4.4-0.3-8.6,1.8-11.1,5.3c-0.5,0.6-1.3,0.8-2,0.4c-1.1-0.2-1.8-0.4-1.8-1.6V82c0-1.1,0.9-2,2-2h22.1c0.4,0,1.3,0,1.3,2c0,2-0.4,2.2-1.1,2.2H18.3v11.8c3.3-2.7,7.6-3.8,11.8-3.1c5.7,0.8,10.5,4.6,12.5,10c2.9,8.1-1.3,17-9.4,20.1c-8.1,2.9-17-1.3-20.1-9.4C13,113,13.2,112.6,15,111.9z"/>
</symbol>
<symbol id="icon-external" viewBox="0 0 200 200">
<path d="M137.5,0L160,22.5l-6.2,6.2l-50,50L95,87.5l17.5,17.5l8.8-8.7l50-50l6.2-6.2L200,62.5V0H137.5L137.5,0z M0,25v175h175V100h-25v75H25V50h75V25H0z"/>
</symbol>
<symbol id="icon-hamburger" viewBox="0 0 200 200">
<path d="M191.6,16.8H8.4C3.9,16.8,0,12.9,0,8.4S3.9,0,8.4,0h183.2c4.5,0,8.4,3.9,8.4,8.4S196.6,16.8,191.6,16.8z"/>
<path d="M191.6,66.1H8.4c-4.5,0-8.4-3.9-8.4-8.4s3.9-8.4,8.4-8.4h183.2c4.5,0,8.4,3.9,8.4,8.4S196.6,66.1,191.6,66.1z"/>
<path d="M191.6,115.4H8.4c-4.5,0-8.4-3.9-8.4-8.4s3.9-8.4,8.4-8.4h183.2c4.5,0,8.4,3.9,8.4,8.4S196.6,115.4,191.6,115.4z"/>
</symbol>
<symbol id="icon-lightroom" viewBox="0 0 200 200">
<path fill="#001E36" d="M35.41,0H164.59A35.38,35.38,0,0,1,200,35.41V159.59A35.39,35.39,0,0,1,164.59,195H35.41A35.39,35.39,0,0,1,0,159.59V35.41A35.38,35.38,0,0,1,35.41,0Z"/>
<path fill="#31A8FF" d="M105,137.83H52.18c-.93,0-1.32-.47-1.32-1.48V51.17A1,1,0,0,1,51.79,50H68.41a.8.8,0,0,1,.93.7v70.2h38.54c.86,0,1.09.39.93,1.17l-2.41,14.51a1.6,1.6,0,0,1-.47,1A2.17,2.17,0,0,1,105,137.83Z"/>
<path fill="#31A8FF" d="M118.33,71.14h14.59a1.74,1.74,0,0,1,1.71,1.32,7.15,7.15,0,0,1,.71,2c.15.86.31,1.72.39,2.58s.15,2,.15,3a33.19,33.19,0,0,1,8.89-7.17,24,24,0,0,1,12.41-3,1,1,0,0,1,1.17.94V87.36c0,.71-.39.94-1.33.94a35.14,35.14,0,0,0-15.76,2.81,13.83,13.83,0,0,0-4.52,3.12v42.51c0,.86-.31,1.17-1.09,1.17H119.42a1.11,1.11,0,0,1-1.32-1V90.41c0-2,0-4.06-.08-6.24s-.08-4.37-.16-6.48c-.08-1.87-.23-3.67-.47-5.54a.8.8,0,0,1,.55-.93c.16-.16.23-.16.39-.08Z"/>
</symbol>
<symbol id="icon-login" viewBox="0 0 200 200">
<path d="M180.42,200V145.67c0-20.27-17.28-37.91-42.55-46.87a58.8,58.8,0,0,1-75.72,0c-25.3,9-42.56,26.65-42.56,47l.06.62L19.58,200Z"/>
<path d="M53.23,49.22c0,27.15,21,49.23,46.77,49.23s46.76-22.08,46.76-49.23S125.78,0,100,0,53.23,22.08,53.23,49.22Z"/>
</symbol>
<symbol id="icon-github" viewBox="0 0 200 200">
<path d="M159,0H41C18.4,0,0,18.3,0,41v117.9C0,181.6,18.3,200,41,200h34v-26c-27.8,6.1-33.6-11.8-33.6-11.8c-4.5-11.6-11.1-14.6-11.1-14.6c-9.1-6.2,0.7-6.1,0.7-6.1c10,0.7,15.3,10.3,15.3,10.3c8.9,15.3,23.4,10.9,29.1,8.3c0.9-6.5,3.5-10.9,6.4-13.4c-22.2-2.5-45.6-11.1-45.6-49.4c0-10.9,3.9-19.8,10.3-26.8c-1-2.5-4.5-12.7,1-26.5c0,0,8.4-2.7,27.5,10.2c8-2.2,16.5-3.3,25-3.4c8.5,0,17.1,1.2,25,3.4C144.1,41.3,152.5,44,152.5,44c5.4,13.8,2,24,1,26.5c6.4,7,10.3,15.9,10.3,26.8c0,38.4-23.4,46.9-45.7,49.3c3.6,3.1,6.9,9.2,6.9,18.5V200h33.9c22.7,0,41.1-18.5,41.1-41.1V41C200,18.4,181.7,0,159,0z"/>
</symbol>
</defs>
</svg>